<svg xmlns="http://www.w3.org/2000/svg" width="760" height="980" viewBox="0 0 760 980">
<defs>
<marker id="ah_cyan" markerWidth="9" markerHeight="7" refX="8" refY="3.5" orient="auto"><polygon points="0 0,9 3.5,0 7" fill="#00f0ff"/></marker>
<marker id="ah_mag" markerWidth="9" markerHeight="7" refX="8" refY="3.5" orient="auto"><polygon points="0 0,9 3.5,0 7" fill="#ff2fd0"/></marker>
<marker id="ah_org" markerWidth="9" markerHeight="7" refX="8" refY="3.5" orient="auto"><polygon points="0 0,9 3.5,0 7" fill="#ff8a2f"/></marker>
<marker id="ah_grn" markerWidth="9" markerHeight="7" refX="8" refY="3.5" orient="auto"><polygon points="0 0,9 3.5,0 7" fill="#2fff8a"/></marker>
<marker id="ah_gray" markerWidth="9" markerHeight="7" refX="8" refY="3.5" orient="auto"><polygon points="0 0,9 3.5,0 7" fill="#6677aa"/></marker>
</defs>
<rect width="760" height="980" fill="#0d0d1a"/>
<line x1="0" y1="0" x2="0" y2="980" stroke="#fff" stroke-width="0.12" opacity="0.07"/>
<line x1="50" y1="0" x2="50" y2="980" stroke="#fff" stroke-width="0.12" opacity="0.07"/>
<line x1="100" y1="0" x2="100" y2="980" stroke="#fff" stroke-width="0.12" opacity="0.07"/>
<line x1="150" y1="0" x2="150" y2="980" stroke="#fff" stroke-width="0.12" opacity="0.07"/>
<line x1="200" y1="0" x2="200" y2="980" stroke="#fff" stroke-width="0.12" opacity="0.07"/>
<line x1="250" y1="0" x2="250" y2="980" stroke="#fff" stroke-width="0.12" opacity="0.07"/>
<line x1="300" y1="0" x2="300" y2="980" stroke="#fff" stroke-width="0.12" opacity="0.07"/>
<line x1="350" y1="0" x2="350" y2="980" stroke="#fff" stroke-width="0.12" opacity="0.07"/>
<line x1="400" y1="0" x2="400" y2="980" stroke="#fff" stroke-width="0.12" opacity="0.07"/>
<line x1="450" y1="0" x2="450" y2="980" stroke="#fff" stroke-width="0.12" opacity="0.07"/>
<line x1="500" y1="0" x2="500" y2="980" stroke="#fff" stroke-width="0.12" opacity="0.07"/>
<line x1="550" y1="0" x2="550" y2="980" stroke="#fff" stroke-width="0.12" opacity="0.07"/>
<line x1="600" y1="0" x2="600" y2="980" stroke="#fff" stroke-width="0.12" opacity="0.07"/>
<line x1="650" y1="0" x2="650" y2="980" stroke="#fff" stroke-width="0.12" opacity="0.07"/>
<line x1="700" y1="0" x2="700" y2="980" stroke="#fff" stroke-width="0.12" opacity="0.07"/>
<line x1="750" y1="0" x2="750" y2="980" stroke="#fff" stroke-width="0.12" opacity="0.07"/>
<line x1="0" y1="0" x2="760" y2="0" stroke="#fff" stroke-width="0.12" opacity="0.07"/>
<line x1="0" y1="50" x2="760" y2="50" stroke="#fff" stroke-width="0.12" opacity="0.07"/>
<line x1="0" y1="100" x2="760" y2="100" stroke="#fff" stroke-width="0.12" opacity="0.07"/>
<line x1="0" y1="150" x2="760" y2="150" stroke="#fff" stroke-width="0.12" opacity="0.07"/>
<line x1="0" y1="200" x2="760" y2="200" stroke="#fff" stroke-width="0.12" opacity="0.07"/>
<line x1="0" y1="250" x2="760" y2="250" stroke="#fff" stroke-width="0.12" opacity="0.07"/>
<line x1="0" y1="300" x2="760" y2="300" stroke="#fff" stroke-width="0.12" opacity="0.07"/>
<line x1="0" y1="350" x2="760" y2="350" stroke="#fff" stroke-width="0.12" opacity="0.07"/>
<line x1="0" y1="400" x2="760" y2="400" stroke="#fff" stroke-width="0.12" opacity="0.07"/>
<line x1="0" y1="450" x2="760" y2="450" stroke="#fff" stroke-width="0.12" opacity="0.07"/>
<line x1="0" y1="500" x2="760" y2="500" stroke="#fff" stroke-width="0.12" opacity="0.07"/>
<line x1="0" y1="550" x2="760" y2="550" stroke="#fff" stroke-width="0.12" opacity="0.07"/>
<line x1="0" y1="600" x2="760" y2="600" stroke="#fff" stroke-width="0.12" opacity="0.07"/>
<line x1="0" y1="650" x2="760" y2="650" stroke="#fff" stroke-width="0.12" opacity="0.07"/>
<line x1="0" y1="700" x2="760" y2="700" stroke="#fff" stroke-width="0.12" opacity="0.07"/>
<line x1="0" y1="750" x2="760" y2="750" stroke="#fff" stroke-width="0.12" opacity="0.07"/>
<line x1="0" y1="800" x2="760" y2="800" stroke="#fff" stroke-width="0.12" opacity="0.07"/>
<line x1="0" y1="850" x2="760" y2="850" stroke="#fff" stroke-width="0.12" opacity="0.07"/>
<line x1="0" y1="900" x2="760" y2="900" stroke="#fff" stroke-width="0.12" opacity="0.07"/>
<line x1="0" y1="950" x2="760" y2="950" stroke="#fff" stroke-width="0.12" opacity="0.07"/>
<text x="380" y="34" font-family="'Courier New',monospace" font-size="17" font-weight="bold" fill="#00f0ff" text-anchor="middle">NEON DRIFT — Resource Collection Flow</text>
<line x1="40" y1="44" x2="720" y2="44" stroke="#1e1e44" stroke-width="1"/>
<rect x="220" y="60" width="280" height="44" fill="#002830" stroke="#00f0ff" stroke-width="2" rx="22"/>
<text x="360" y="87" font-family="'Courier New',monospace" font-size="13" font-weight="bold" font-style="normal" fill="#00f0ff" text-anchor="middle">플레이어 발사 (좌클릭)</text>
<rect x="220" y="130" width="280" height="78" fill="#002830" stroke="#00f0ff" stroke-width="1.8" rx="5"/>
<rect x="220" y="130" width="280" height="38" fill="#002830" rx="5"/>
<rect x="220" y="164" width="280" height="6" fill="#002830" stroke="none"/>
<line x1="220" y1="168" x2="500" y2="168" stroke="#00f0ff" stroke-width="1"/>
<text x="360" y="155" font-family="'Courier New',monospace" font-size="13" font-weight="bold" font-style="normal" fill="#00f0ff" text-anchor="middle">LineTrace 실행</text>
<text x="230" y="182" font-family="'Courier New',monospace" font-size="10" font-weight="normal" font-style="normal" fill="#6677aa" text-anchor="start">Muzzle 위치에서 AimDir 방향</text>
<text x="230" y="197" font-family="'Courier New',monospace" font-size="10" font-weight="normal" font-style="normal" fill="#6677aa" text-anchor="start">HitResult 수신</text>
<polygon points="360,225 500,253 360,281 220,253" fill="#002830" stroke="#00f0ff" stroke-width="1.8"/>
<text x="360" y="258" font-family="'Courier New',monospace" font-size="11" font-weight="bold" font-style="normal" fill="#00f0ff" text-anchor="middle">IDamageable 구현?</text>
<text x="560" y="258" font-family="'Courier New',monospace" font-size="11" font-weight="normal" font-style="normal" fill="#6677aa" text-anchor="middle">Miss</text>
<rect x="524" y="244" width="72" height="28" fill="#0e0e22" stroke="#6677aa" stroke-width="1" rx="14"/>
<text x="560" y="262" font-family="'Courier New',monospace" font-size="11" font-weight="normal" font-style="normal" fill="#6677aa" text-anchor="middle">종료</text>
<rect x="220" y="308" width="280" height="63" fill="#002830" stroke="#00f0ff" stroke-width="1.8" rx="5"/>
<rect x="220" y="308" width="280" height="38" fill="#002830" rx="5"/>
<rect x="220" y="342" width="280" height="6" fill="#002830" stroke="none"/>
<line x1="220" y1="346" x2="500" y2="346" stroke="#00f0ff" stroke-width="1"/>
<text x="360" y="333" font-family="'Courier New',monospace" font-size="13" font-weight="bold" font-style="normal" fill="#00f0ff" text-anchor="middle">Execute_TakeHit() 호출</text>
<text x="230" y="360" font-family="'Courier New',monospace" font-size="10" font-weight="normal" font-style="normal" fill="#6677aa" text-anchor="start">Damage, AttackerPower 전달</text>
<polygon points="360,393 510,421 360,449 210,421" fill="#181008" stroke="#ff8a2f" stroke-width="1.8"/>
<text x="360" y="426" font-family="'Courier New',monospace" font-size="11" font-weight="bold" font-style="normal" fill="#ff8a2f" text-anchor="middle">AttackerPower &gt;= RequiredPower?</text>
<rect x="529" y="406" width="92" height="28" fill="#281000" stroke="#ff8a2f" stroke-width="1" rx="4"/>
<text x="575" y="424" font-family="'Courier New',monospace" font-size="10" font-weight="normal" font-style="normal" fill="#ff8a2f" text-anchor="middle">스파크 이펙트</text>
<text x="575" y="436" font-family="'Courier New',monospace" font-size="9" font-weight="normal" font-style="normal" fill="#6677aa" text-anchor="middle">(파괴 불가)</text>
<rect x="220" y="478" width="280" height="78" fill="#002818" stroke="#2fff8a" stroke-width="1.8" rx="5"/>
<rect x="220" y="478" width="280" height="38" fill="#002818" rx="5"/>
<rect x="220" y="512" width="280" height="6" fill="#002818" stroke="none"/>
<line x1="220" y1="516" x2="500" y2="516" stroke="#2fff8a" stroke-width="1"/>
<text x="360" y="503" font-family="'Courier New',monospace" font-size="13" font-weight="bold" font-style="normal" fill="#2fff8a" text-anchor="middle">ResourceBlock HP 감소</text>
<text x="230" y="530" font-family="'Courier New',monospace" font-size="10" font-weight="normal" font-style="normal" fill="#6677aa" text-anchor="start">HP -= Damage</text>
<text x="230" y="545" font-family="'Courier New',monospace" font-size="10" font-weight="normal" font-style="normal" fill="#6677aa" text-anchor="start">MID 피격 플래시</text>
<polygon points="360,566 450,592 360,618 270,592" fill="#181008" stroke="#2fff8a" stroke-width="1.8"/>
<text x="360" y="597" font-family="'Courier New',monospace" font-size="11" font-weight="bold" font-style="normal" fill="#2fff8a" text-anchor="middle">HP &lt;= 0?</text>
<rect x="477" y="578" width="76" height="26" fill="#002818" stroke="#2fff8a" stroke-width="1" rx="13"/>
<text x="515" y="595" font-family="'Courier New',monospace" font-size="11" font-weight="normal" font-style="normal" fill="#2fff8a" text-anchor="middle">유지</text>
<rect x="220" y="648" width="280" height="78" fill="#002830" stroke="#00f0ff" stroke-width="1.8" rx="5"/>
<rect x="220" y="648" width="280" height="38" fill="#002830" rx="5"/>
<rect x="220" y="682" width="280" height="6" fill="#002830" stroke="none"/>
<line x1="220" y1="686" x2="500" y2="686" stroke="#00f0ff" stroke-width="1"/>
<text x="360" y="673" font-family="'Courier New',monospace" font-size="13" font-weight="bold" font-style="normal" fill="#00f0ff" text-anchor="middle">AResourceShard 스폰</text>
<text x="230" y="700" font-family="'Courier New',monospace" font-size="10" font-weight="normal" font-style="normal" fill="#6677aa" text-anchor="start">ShardMin~Max 개수 랜덤</text>
<text x="230" y="715" font-family="'Courier New',monospace" font-size="10" font-weight="normal" font-style="normal" fill="#6677aa" text-anchor="start">Impulse로 흩어짐</text>
<polygon points="360,736 490,762 360,788 230,762" fill="#002830" stroke="#00f0ff" stroke-width="1.8"/>
<text x="360" y="767" font-family="'Courier New',monospace" font-size="11" font-weight="bold" font-style="normal" fill="#00f0ff" text-anchor="middle">자석 반경 내 진입?</text>
<rect x="220" y="818" width="280" height="78" fill="#002818" stroke="#2fff8a" stroke-width="1.8" rx="5"/>
<rect x="220" y="818" width="280" height="38" fill="#002818" rx="5"/>
<rect x="220" y="852" width="280" height="6" fill="#002818" stroke="none"/>
<line x1="220" y1="856" x2="500" y2="856" stroke="#2fff8a" stroke-width="1"/>
<text x="360" y="843" font-family="'Courier New',monospace" font-size="13" font-weight="bold" font-style="normal" fill="#2fff8a" text-anchor="middle">호밍 가속 → 기체에 흡수</text>
<text x="230" y="870" font-family="'Courier New',monospace" font-size="10" font-weight="normal" font-style="normal" fill="#6677aa" text-anchor="start">Velocity += Dir * HomingAccel * Dt</text>
<text x="230" y="885" font-family="'Courier New',monospace" font-size="10" font-weight="normal" font-style="normal" fill="#6677aa" text-anchor="start">AddResources(Value)</text>
<rect x="220" y="900" width="280" height="44" fill="#002818" stroke="#2fff8a" stroke-width="2" rx="22"/>
<text x="360" y="927" font-family="'Courier New',monospace" font-size="13" font-weight="bold" font-style="normal" fill="#2fff8a" text-anchor="middle">자원 누적 완료 → 상점 사용 가능</text>
<line x1="360" y1="104" x2="360" y2="130" stroke="#00f0ff" stroke-width="1.6"  marker-end="url(#ah_cyan)"/>
<line x1="360" y1="208" x2="360" y2="225" stroke="#00f0ff" stroke-width="1.6"  marker-end="url(#ah_cyan)"/>
<line x1="500" y1="253" x2="560" y2="244" stroke="#6677aa" stroke-width="1.6"  marker-end="url(#ah_gray)"/>
<text x="540" y="252" font-family="'Courier New',monospace" font-size="10" font-weight="normal" font-style="normal" fill="#6677aa" text-anchor="start">No</text>
<line x1="360" y1="281" x2="360" y2="308" stroke="#00f0ff" stroke-width="1.6"  marker-end="url(#ah_cyan)"/>
<text x="370" y="298" font-family="'Courier New',monospace" font-size="10" font-weight="normal" font-style="normal" fill="#00f0ff" text-anchor="start">Yes (AResourceBlock)</text>
<line x1="360" y1="371" x2="360" y2="393" stroke="#ff8a2f" stroke-width="1.6"  marker-end="url(#ah_org)"/>
<line x1="510" y1="421" x2="529" y2="420" stroke="#ff8a2f" stroke-width="1.6"  marker-end="url(#ah_org)"/>
<text x="529" y="424" font-family="'Courier New',monospace" font-size="10" font-weight="normal" font-style="normal" fill="#ff8a2f" text-anchor="start">No</text>
<line x1="360" y1="449" x2="360" y2="478" stroke="#2fff8a" stroke-width="1.6"  marker-end="url(#ah_grn)"/>
<text x="370" y="467" font-family="'Courier New',monospace" font-size="10" font-weight="normal" font-style="normal" fill="#2fff8a" text-anchor="start">Yes</text>
<line x1="360" y1="556" x2="360" y2="566" stroke="#2fff8a" stroke-width="1.6"  marker-end="url(#ah_grn)"/>
<line x1="450" y1="592" x2="477" y2="591" stroke="#2fff8a" stroke-width="1.6"  marker-end="url(#ah_grn)"/>
<text x="473" y="595" font-family="'Courier New',monospace" font-size="10" font-weight="normal" font-style="normal" fill="#2fff8a" text-anchor="start">No</text>
<line x1="360" y1="618" x2="360" y2="648" stroke="#00f0ff" stroke-width="1.6"  marker-end="url(#ah_cyan)"/>
<text x="370" y="637" font-family="'Courier New',monospace" font-size="10" font-weight="normal" font-style="normal" fill="#00f0ff" text-anchor="start">Yes</text>
<line x1="360" y1="726" x2="360" y2="736" stroke="#00f0ff" stroke-width="1.6"  marker-end="url(#ah_cyan)"/>
<line x1="360" y1="788" x2="360" y2="818" stroke="#00f0ff" stroke-width="1.6"  marker-end="url(#ah_cyan)"/>
<text x="370" y="807" font-family="'Courier New',monospace" font-size="10" font-weight="normal" font-style="normal" fill="#00f0ff" text-anchor="start">Yes (TWeakObjectPtr)</text>
<line x1="360" y1="896" x2="360" y2="900" stroke="#2fff8a" stroke-width="1.6"  marker-end="url(#ah_grn)"/>
<line x1="230" y1="814" x2="160" y2="814" stroke="#6677aa" stroke-width="1.6" stroke-dasharray="6,3"/>
<line x1="160" y1="814" x2="160" y2="726" stroke="#6677aa" stroke-width="1.6" stroke-dasharray="6,3"/>
<line x1="160" y1="726" x2="230" y2="726" stroke="#6677aa" stroke-width="1.6" stroke-dasharray="6,3" marker-end="url(#ah_gray)"/>
<rect x="100" y="735" width="61" height="16" fill="#0e0e22" stroke="#6677aa" stroke-width="0.8" rx="3"/>
<text x="130" y="747" font-family="'Courier New',monospace" font-size="10" font-weight="normal" font-style="normal" fill="#6677aa" text-anchor="middle">No (대기)</text>
</svg>